<svg xmlns="http://www.w3.org/2000/svg" width="26" height="26" viewBox="0 0 26 26">
    <defs>
        <filter id="prefix__a" width="120%" height="118.8%" x="-10%" y="-9.4%" filterUnits="objectBoundingBox">
            <feOffset dy="2" in="SourceAlpha" result="shadowOffsetOuter1"/>
            <feGaussianBlur in="shadowOffsetOuter1" result="shadowBlurOuter1" stdDeviation="12"/>
            <feColorMatrix in="shadowBlurOuter1" result="shadowMatrixOuter1" values="0 0 0 0 0 0 0 0 0 0 0 0 0 0 0 0 0 0 0.5 0"/>
            <feMerge>
                <feMergeNode in="shadowMatrixOuter1"/>
                <feMergeNode in="SourceGraphic"/>
            </feMerge>
        </filter>
    </defs>
    <g fill="#2D354C" fill-rule="evenodd" filter="url(#prefix__a)" transform="translate(-131 -474)">
        <path d="M144 476c-6.075 0-11 4.925-11 11s4.925 11 11 11 11-4.925 11-11-4.925-11-11-11zm8.896 10.209c-1.168-.047-3.377-.048-5.888.39-.227-.543-.458-1.064-.691-1.562.145-.068.29-.137.431-.208 1.724-.87 3.156-1.993 4.272-3.35 1.076 1.362 1.724 2.995 1.876 4.73zm-3.344-6.205c-1.042 1.327-2.43 2.392-4.155 3.188-.194-.365-.386-.713-.571-1.04-.95-1.67-1.856-2.998-2.533-3.92.556-.107 1.127-.163 1.707-.163 2.042 0 3.978.681 5.552 1.935zm-11.867.681c.745-.745 1.599-1.342 2.525-1.777.65.845 1.722 2.335 2.844 4.315.128.227.26.464.393.71-.863.267-1.789.482-2.779.643-2.22.362-4.222.35-5.345.3.382-1.574 1.188-3.017 2.362-4.191zM135.069 487l.001-.063c.382.02.867.037 1.434.037 1.196 0 2.751-.075 4.444-.347 1.22-.196 2.37-.473 3.441-.827.19.401.378.819.564 1.253-1.371.369-2.63.851-3.76 1.443-1.832.96-3.325 2.206-4.449 3.713-1.088-1.508-1.675-3.313-1.675-5.209zm3.104 6.768c1.571-2.301 4.104-3.905 7.547-4.78.69 1.9 1.282 4.022 1.622 6.298-1.048.423-2.178.645-3.342.645-2.162 0-4.207-.764-5.827-2.163zm12.142-.453c-.33.33-.68.63-1.05.9-.353-2.021-.885-3.918-1.497-5.644 2.17-.34 4.078-.332 5.072-.292-.27 1.9-1.144 3.655-2.525 5.036z"/>
    </g>
</svg>
