<svg xmlns="http://www.w3.org/2000/svg" width="26" height="26" viewBox="0 0 26 26">
    <defs>
        <filter id="prefix__a" width="120%" height="118.8%" x="-10%" y="-9.4%" filterUnits="objectBoundingBox">
            <feOffset dy="2" in="SourceAlpha" result="shadowOffsetOuter1"/>
            <feGaussianBlur in="shadowOffsetOuter1" result="shadowBlurOuter1" stdDeviation="12"/>
            <feColorMatrix in="shadowBlurOuter1" result="shadowMatrixOuter1" values="0 0 0 0 0 0 0 0 0 0 0 0 0 0 0 0 0 0 0.5 0"/>
            <feMerge>
                <feMergeNode in="shadowMatrixOuter1"/>
                <feMergeNode in="SourceGraphic"/>
            </feMerge>
        </filter>
    </defs>
    <g fill="#2D354C" fill-rule="evenodd" filter="url(#prefix__a)" transform="translate(-60 -474)">
        <path d="M78.595 476c3.348 0 6.072 2.724 6.072 6.071v9.858c0 3.347-2.724 6.07-6.072 6.07h-9.857c-3.348 0-6.071-2.723-6.071-6.07v-9.858c0-3.347 2.723-6.071 6.07-6.071zm0 1.952h-9.857c-2.271 0-4.12 1.848-4.12 4.12v9.857c0 2.271 1.849 4.12 4.12 4.119h9.858c2.271 0 4.119-1.848 4.119-4.12v-9.857c0-2.271-1.848-4.12-4.12-4.12zm-4.928 3.38c3.126 0 5.669 2.542 5.669 5.668 0 3.126-2.543 5.669-5.67 5.669-3.125 0-5.668-2.543-5.668-5.669 0-3.126 2.543-5.669 5.669-5.669zm0 1.951c-2.05 0-3.717 1.668-3.717 3.717 0 2.05 1.667 3.717 3.717 3.717s3.717-1.668 3.717-3.717c0-2.05-1.668-3.717-3.717-3.717zm5.906-3.607c.378 0 .747.153 1.013.42.267.265.419.634.419 1.012 0 .376-.152.745-.42 1.012-.266.266-.634.42-1.012.42-.376 0-.745-.154-1.01-.42-.268-.267-.421-.636-.421-1.012 0-.378.153-.747.42-1.013.266-.266.635-.419 1.011-.419z"/>
    </g>
</svg>
