<svg xmlns="http://www.w3.org/2000/svg" width="26" height="26" viewBox="0 0 26 26">
    <defs>
        <filter id="prefix__a" width="120%" height="118.8%" x="-10%" y="-9.4%" filterUnits="objectBoundingBox">
            <feOffset dy="2" in="SourceAlpha" result="shadowOffsetOuter1"/>
            <feGaussianBlur in="shadowOffsetOuter1" result="shadowBlurOuter1" stdDeviation="12"/>
            <feColorMatrix in="shadowBlurOuter1" result="shadowMatrixOuter1" values="0 0 0 0 0 0 0 0 0 0 0 0 0 0 0 0 0 0 0.5 0"/>
            <feMerge>
                <feMergeNode in="shadowMatrixOuter1"/>
                <feMergeNode in="SourceGraphic"/>
            </feMerge>
        </filter>
    </defs>
    <g fill="#2D354C" fill-rule="evenodd" filter="url(#prefix__a)" transform="translate(-272 -474)">
        <path d="M296.333 480.179c-.818.359-1.69.596-2.599.712.935-.558 1.649-1.436 1.985-2.493-.872.52-1.835.887-2.86 1.092-.828-.882-2.008-1.427-3.295-1.427-2.497 0-4.507 2.026-4.507 4.51 0 .358.03.702.104 1.03-3.75-.184-7.067-1.98-9.296-4.718-.39.675-.618 1.448-.618 2.28 0 1.561.805 2.946 2.004 3.748-.725-.014-1.436-.224-2.038-.556v.05c0 2.191 1.563 4.012 3.614 4.431-.368.1-.768.149-1.183.149-.289 0-.58-.017-.854-.077.585 1.786 2.243 3.1 4.215 3.142-1.535 1.2-3.483 1.923-5.593 1.923-.37 0-.724-.016-1.079-.062 1.998 1.289 4.366 2.024 6.92 2.024 8.299 0 12.836-6.875 12.836-12.834 0-.2-.007-.392-.016-.583.895-.635 1.647-1.428 2.26-2.341z"/>
    </g>
</svg>
